<svg width="40" height="39" viewBox="0 0 40 39" fill="none" xmlns="http://www.w3.org/2000/svg">
<path fill-rule="evenodd" clip-rule="evenodd" d="M20.3615 4.84741C16.4118 4.84741 15.9173 4.86389 14.3661 4.93467C12.8179 5.00544 11.7601 5.25169 10.8352 5.61137C9.86575 5.9759 8.98642 6.5479 8.2593 7.28859C7.5198 8.01487 6.94744 8.89358 6.58208 9.86356C6.22434 10.7885 5.97712 11.8471 5.90635 13.3954C5.83654 14.9456 5.81909 15.4391 5.81909 19.3898C5.81909 23.3405 5.83557 23.8339 5.90635 25.3851C5.97712 26.9334 6.22337 27.9911 6.58305 28.916C6.94758 29.8855 7.51958 30.7648 8.26027 31.492C8.98657 32.2314 9.86527 32.8038 10.8352 33.1692C11.7601 33.5279 12.8179 33.7741 14.3661 33.8449C15.9173 33.9157 16.4118 33.9322 20.3615 33.9322C24.3112 33.9322 24.8056 33.9157 26.3568 33.8449C27.9051 33.7741 28.9628 33.5279 29.8877 33.1682C30.8572 32.8037 31.7365 32.2317 32.4636 31.491C33.2031 30.7647 33.7755 29.886 34.1409 28.916C34.4996 27.9911 34.7458 26.9334 34.8166 25.3851C34.8874 23.8339 34.9038 23.3395 34.9038 19.3898C34.9038 15.4401 34.8874 14.9456 34.8166 13.3945C34.7458 11.8462 34.4996 10.7885 34.1399 9.86356C33.7748 8.89316 33.2024 8.01408 32.4627 7.28762C31.7364 6.54812 30.8577 5.97576 29.8877 5.6104C28.9628 5.25266 27.9041 5.00544 26.3558 4.93467C24.8056 4.86486 24.3121 4.84741 20.3615 4.84741ZM20.3615 7.46795C24.2443 7.46795 24.7048 7.48249 26.2385 7.55229C27.6559 7.61725 28.4257 7.85284 28.9386 8.05352C29.6172 8.31625 30.102 8.63231 30.6109 9.14032C31.1199 9.6493 31.435 10.1341 31.6977 10.8127C31.8975 11.3256 32.134 12.0953 32.199 13.5127C32.2688 15.0465 32.2833 15.507 32.2833 19.3898C32.2833 23.2726 32.2688 23.7331 32.199 25.2668C32.134 26.6842 31.8984 27.454 31.6977 27.9669C31.465 28.5985 31.0936 29.17 30.6109 29.6393C30.1418 30.122 29.5703 30.4934 28.9386 30.7261C28.4257 30.9258 27.6559 31.1623 26.2385 31.2273C24.7048 31.2971 24.2453 31.3116 20.3615 31.3116C16.4777 31.3116 16.0181 31.2971 14.4844 31.2273C13.067 31.1623 12.2972 30.9267 11.7844 30.7261C11.1527 30.4933 10.5812 30.1219 10.112 29.6393C9.62937 29.17 9.258 28.5985 9.0252 27.9669C8.82549 27.454 8.58893 26.6842 8.52397 25.2668C8.45417 23.7331 8.43963 23.2726 8.43963 19.3898C8.43963 15.507 8.45417 15.0465 8.52397 13.5127C8.58893 12.0953 8.82452 11.3256 9.0252 10.8127C9.28793 10.1341 9.60399 9.6493 10.112 9.14032C10.5812 8.65756 11.1527 8.28618 11.7844 8.05352C12.2972 7.85381 13.067 7.61725 14.4844 7.55229C16.0181 7.48249 16.4787 7.46795 20.3615 7.46795V7.46795Z" fill="#1188E7"/>
<path fill-rule="evenodd" clip-rule="evenodd" d="M20.3615 24.2422C19.7243 24.2422 19.0933 24.1167 18.5046 23.8728C17.9159 23.629 17.381 23.2715 16.9304 22.821C16.4798 22.3704 16.1224 21.8355 15.8786 21.2468C15.6347 20.658 15.5092 20.0271 15.5092 19.3899C15.5092 18.7526 15.6347 18.1217 15.8786 17.533C16.1224 16.9443 16.4798 16.4093 16.9304 15.9588C17.381 15.5082 17.9159 15.1508 18.5046 14.9069C19.0933 14.6631 19.7243 14.5376 20.3615 14.5376C21.6484 14.5376 22.8826 15.0488 23.7926 15.9588C24.7026 16.8687 25.2138 18.1029 25.2138 19.3899C25.2138 20.6768 24.7026 21.911 23.7926 22.821C22.8826 23.7309 21.6484 24.2422 20.3615 24.2422V24.2422ZM20.3615 11.9151C18.3791 11.9151 16.4778 12.7026 15.076 14.1044C13.6742 15.5062 12.8867 17.4074 12.8867 19.3899C12.8867 21.3723 13.6742 23.2735 15.076 24.6753C16.4778 26.0771 18.3791 26.8646 20.3615 26.8646C22.3439 26.8646 24.2452 26.0771 25.647 24.6753C27.0488 23.2735 27.8363 21.3723 27.8363 19.3899C27.8363 17.4074 27.0488 15.5062 25.647 14.1044C24.2452 12.7026 22.3439 11.9151 20.3615 11.9151V11.9151ZM30.0108 11.7794C30.0108 12.248 29.8247 12.6974 29.4933 13.0287C29.162 13.3601 28.7126 13.5462 28.2439 13.5462C27.7753 13.5462 27.3259 13.3601 26.9946 13.0287C26.6632 12.6974 26.477 12.248 26.477 11.7794C26.477 11.3107 26.6632 10.8613 26.9946 10.53C27.3259 10.1986 27.7753 10.0125 28.2439 10.0125C28.7126 10.0125 29.162 10.1986 29.4933 10.53C29.8247 10.8613 30.0108 11.3107 30.0108 11.7794" fill="#1188E7"/>
</svg>
