<svg width="30" height="30" viewBox="0 0 30 30" fill="none" xmlns="http://www.w3.org/2000/svg">
<path d="M29.8755 2.986V27.7936C29.8755 28.3608 29.6502 28.9047 29.2492 29.3058C28.8481 29.7069 28.3041 29.9322 27.7369 29.9322H2.92936C2.36217 29.9322 1.81821 29.7069 1.41715 29.3058C1.01609 28.9047 0.790771 28.3608 0.790771 27.7936L0.790771 2.986C0.790771 2.41881 1.01609 1.87485 1.41715 1.47379C1.81821 1.07273 2.36217 0.847412 2.92936 0.847412L27.7369 0.847412C28.3041 0.847412 28.8481 1.07273 29.2492 1.47379C29.6502 1.87485 29.8755 2.41881 29.8755 2.986V2.986ZM9.34511 11.9681H5.06794V25.655H9.34511V11.9681ZM9.73006 7.26317C9.73231 6.93963 9.67082 6.61882 9.54909 6.31906C9.42735 6.01929 9.24777 5.74644 9.02059 5.51607C8.7934 5.28571 8.52307 5.10236 8.22502 4.97647C7.92697 4.85059 7.60705 4.78465 7.28352 4.78241H7.20653C6.54859 4.78241 5.9176 5.04377 5.45236 5.50901C4.98713 5.97424 4.72577 6.60523 4.72577 7.26317C4.72577 7.9211 4.98713 8.5521 5.45236 9.01733C5.9176 9.48256 6.54859 9.74392 7.20653 9.74392V9.74392C7.53008 9.75188 7.85203 9.69601 8.15399 9.5795C8.45595 9.46299 8.73198 9.28813 8.96634 9.0649C9.20069 8.84167 9.38876 8.57445 9.5198 8.27851C9.65084 7.98257 9.72229 7.66372 9.73006 7.34016V7.26317ZM25.5984 17.3402C25.5984 13.2255 22.9807 11.6259 20.3802 11.6259C19.5287 11.5832 18.681 11.7646 17.9215 12.1519C17.162 12.5391 16.5173 13.1187 16.0517 13.8329H15.932V11.9681H11.9114V25.655H16.1886V18.3753C16.1268 17.6297 16.3616 16.8898 16.8421 16.3164C17.3226 15.743 18.01 15.3823 18.7549 15.3128H18.9174C20.2776 15.3128 21.287 16.1682 21.287 18.3239V25.655H25.5641L25.5984 17.3402Z" fill="#1188E7"/>
</svg>
