<svg width="33" height="27" viewBox="0 0 33 27" fill="none" xmlns="http://www.w3.org/2000/svg">
<path d="M29.2396 6.79715C29.2593 7.08205 29.2593 7.36694 29.2593 7.65446C29.2593 16.4153 22.5899 26.5191 10.3946 26.5191V26.5139C6.79206 26.5191 3.26437 25.4872 0.231628 23.5415C0.755465 23.6046 1.28193 23.6361 1.8097 23.6374C4.79518 23.64 7.69532 22.6383 10.044 20.7937C7.20693 20.7399 4.71903 18.89 3.84991 16.1895C4.84375 16.3811 5.8678 16.3417 6.84326 16.0752C3.75013 15.4503 1.52481 12.7327 1.52481 9.57651C1.52481 9.54762 1.52481 9.52005 1.52481 9.49248C2.44645 10.0058 3.47837 10.2907 4.53392 10.3222C1.62065 8.37523 0.722643 4.49962 2.48189 1.46951C5.8481 5.61163 10.8147 8.12972 16.1463 8.39623C15.6119 6.09345 16.3419 3.68039 18.0644 2.06162C20.7348 -0.448598 24.9347 -0.319936 27.4449 2.34914C28.9297 2.05637 30.3529 1.51152 31.6553 0.739553C31.1603 2.2743 30.1245 3.57799 28.7407 4.40641C30.0549 4.25149 31.3389 3.89964 32.548 3.36268C31.6579 4.69655 30.5367 5.85845 29.2396 6.79715Z" fill="#1188E7"/>
</svg>
