<svg width="30" height="29" viewBox="0 0 30 29" fill="none" xmlns="http://www.w3.org/2000/svg">
<path d="M15.3376 0.316406C7.35519 0.316406 0.858975 6.57338 0.85616 14.263C0.854284 16.7221 1.52229 19.122 2.78889 21.2359L0.734192 28.4629L8.41163 26.5236C10.5472 27.6408 12.9218 28.2235 15.3319 28.2218H15.3376C23.3199 28.2218 29.8161 21.9639 29.8189 14.2743C29.8208 10.5495 28.3159 7.04343 25.581 4.40797C22.847 1.77158 19.2115 0.317344 15.3376 0.316406ZM15.3376 25.866H15.3329C13.1731 25.866 11.0546 25.3068 9.2063 24.2503L8.76534 23.9989L4.21123 25.1492L5.42716 20.8709L5.141 20.4327C3.93905 18.5996 3.29922 16.4551 3.30022 14.263C3.30303 7.87094 8.70341 2.67227 15.3422 2.67227C18.5566 2.67321 21.5786 3.8807 23.8519 6.07143C26.1252 8.26217 27.3758 11.1753 27.3739 14.2733C27.3711 20.6654 21.9717 25.866 15.3366 25.866H15.3376ZM21.9398 17.1827C21.5776 17.0092 19.7988 16.1657 19.4666 16.0484C19.1355 15.933 18.8943 15.873 18.6532 16.222C18.413 16.571 17.7187 17.3563 17.5086 17.5881C17.2965 17.8207 17.0855 17.8489 16.7233 17.6753C16.3611 17.5008 15.1949 17.133 13.8139 15.9452C12.7377 15.022 12.0116 13.8812 11.8005 13.5312C11.5894 13.1831 11.778 12.9945 11.959 12.821C12.1213 12.6662 12.3212 12.4147 12.5013 12.2111C12.6815 12.0075 12.7415 11.8621 12.8635 11.6294C12.9836 11.3977 12.9235 11.1932 12.8325 11.0196C12.7415 10.8441 12.0191 9.12909 11.716 8.43199C11.4233 7.75272 11.125 7.84373 10.9026 7.83247C10.6915 7.82309 10.4513 7.82027 10.2083 7.82027C9.96907 7.82027 9.57596 7.90753 9.24383 8.25654C8.91264 8.60556 7.97723 9.44808 7.97723 11.1631C7.97723 12.8791 9.27385 14.536 9.45493 14.7687C9.636 15.0005 12.0069 18.5216 15.6368 20.0321C16.5 20.3896 17.1736 20.6044 17.7 20.7658C18.5669 21.0313 19.3559 20.9929 19.9789 20.9037C20.6732 20.8033 22.1199 20.0612 22.4202 19.2478C22.7223 18.4343 22.7223 17.7363 22.6322 17.5909C22.544 17.4455 22.3019 17.3582 21.9398 17.1827V17.1827Z" fill="#1188E7"/>
</svg>
